<svg width="14" height="13" viewBox="0 0 14 13" fill="none" xmlns="http://www.w3.org/2000/svg">
<g clip-path="url(#clip0_2_111)">
<mask id="path-1-inside-1_2_111" fill="white">
<path d="M7.45801 2.22968C7.38053 2.31171 7.30306 2.39488 7.20736 2.494L6.94417 2.76858L6.67074 2.50312C6.58984 2.42451 6.50781 2.34361 6.42806 2.265C5.58268 1.4333 4.9458 0.806668 3.63444 0.789578C3.58317 0.788438 3.52848 0.789578 3.47152 0.791856C2.73779 0.818061 2.06104 1.08808 1.56657 1.54951C1.07894 2.00524 0.767904 2.65123 0.75765 3.43736C0.75651 3.48636 0.75765 3.53762 0.759928 3.59345C0.838542 5.78893 2.93945 7.70413 4.68148 9.29121C5.01758 9.59768 5.34001 9.89163 5.64876 10.189L6.93164 11.4252L8.54378 9.82555C8.80355 9.56806 9.09749 9.28665 9.41195 8.98587C9.94629 8.47317 10.541 7.90465 11.0947 7.33157C11.4924 6.92027 11.8695 6.5067 12.1896 6.10908C12.5041 5.71943 12.7616 5.34915 12.9268 5.01874C13.1979 4.47643 13.2834 3.93411 13.2253 3.42711C13.1683 2.92695 12.9712 2.45983 12.6761 2.06106C12.3765 1.6566 11.9777 1.32164 11.5208 1.09264C10.9945 0.830593 10.3918 0.706407 9.77539 0.777045C8.7124 0.900092 8.14616 1.50052 7.45801 2.22968ZM6.92367 1.69192C7.7098 0.859076 8.36263 0.176622 9.6888 0.0250921C10.4544 -0.0626358 11.2041 0.0900335 11.8569 0.418158C12.4209 0.700711 12.9131 1.11315 13.2822 1.61103C13.6548 2.11461 13.9043 2.70592 13.9772 3.34166C14.0513 3.98652 13.9442 4.67353 13.6012 5.35712C13.4076 5.74335 13.1204 6.15807 12.7775 6.58303C12.4414 7.00003 12.0495 7.43069 11.6382 7.85566C11.0742 8.44013 10.4749 9.01435 9.9349 9.5316C9.6193 9.83352 9.32422 10.1161 9.07585 10.3622L7.20052 12.2227L6.93734 12.4836L6.67074 12.2272L5.12126 10.7347C4.83757 10.4624 4.50944 10.1628 4.16878 9.85175C2.32194 8.16669 0.0922852 6.13528 0.00227865 3.61966C0 3.55813 0 3.49433 0 3.42825C0.0136719 2.41881 0.416992 1.58483 1.04932 0.994656C1.67594 0.410183 2.52702 0.0683863 3.44303 0.035346C3.5057 0.0330673 3.57178 0.031928 3.64128 0.0330673C5.24089 0.0547145 5.97233 0.755398 6.92367 1.69192Z"/>
</mask>
<path d="M7.45801 2.22968C7.38053 2.31171 7.30306 2.39488 7.20736 2.494L6.94417 2.76858L6.67074 2.50312C6.58984 2.42451 6.50781 2.34361 6.42806 2.265C5.58268 1.4333 4.9458 0.806668 3.63444 0.789578C3.58317 0.788438 3.52848 0.789578 3.47152 0.791856C2.73779 0.818061 2.06104 1.08808 1.56657 1.54951C1.07894 2.00524 0.767904 2.65123 0.75765 3.43736C0.75651 3.48636 0.75765 3.53762 0.759928 3.59345C0.838542 5.78893 2.93945 7.70413 4.68148 9.29121C5.01758 9.59768 5.34001 9.89163 5.64876 10.189L6.93164 11.4252L8.54378 9.82555C8.80355 9.56806 9.09749 9.28665 9.41195 8.98587C9.94629 8.47317 10.541 7.90465 11.0947 7.33157C11.4924 6.92027 11.8695 6.5067 12.1896 6.10908C12.5041 5.71943 12.7616 5.34915 12.9268 5.01874C13.1979 4.47643 13.2834 3.93411 13.2253 3.42711C13.1683 2.92695 12.9712 2.45983 12.6761 2.06106C12.3765 1.6566 11.9777 1.32164 11.5208 1.09264C10.9945 0.830593 10.3918 0.706407 9.77539 0.777045C8.7124 0.900092 8.14616 1.50052 7.45801 2.22968ZM6.92367 1.69192C7.7098 0.859076 8.36263 0.176622 9.6888 0.0250921C10.4544 -0.0626358 11.2041 0.0900335 11.8569 0.418158C12.4209 0.700711 12.9131 1.11315 13.2822 1.61103C13.6548 2.11461 13.9043 2.70592 13.9772 3.34166C14.0513 3.98652 13.9442 4.67353 13.6012 5.35712C13.4076 5.74335 13.1204 6.15807 12.7775 6.58303C12.4414 7.00003 12.0495 7.43069 11.6382 7.85566C11.0742 8.44013 10.4749 9.01435 9.9349 9.5316C9.6193 9.83352 9.32422 10.1161 9.07585 10.3622L7.20052 12.2227L6.93734 12.4836L6.67074 12.2272L5.12126 10.7347C4.83757 10.4624 4.50944 10.1628 4.16878 9.85175C2.32194 8.16669 0.0922852 6.13528 0.00227865 3.61966C0 3.55813 0 3.49433 0 3.42825C0.0136719 2.41881 0.416992 1.58483 1.04932 0.994656C1.67594 0.410183 2.52702 0.0683863 3.44303 0.035346C3.5057 0.0330673 3.57178 0.031928 3.64128 0.0330673C5.24089 0.0547145 5.97233 0.755398 6.92367 1.69192Z" fill="black"/>
<path d="M7.45801 2.22968L11.0931 5.6628L11.0943 5.66146L7.45801 2.22968ZM7.20736 2.494L3.61035 -0.978968L3.60403 -0.972418L3.59773 -0.965846L7.20736 2.494ZM6.94417 2.76858L3.46135 6.35605L7.07179 9.86119L10.5538 6.22843L6.94417 2.76858ZM6.67074 2.50312L3.18606 6.0888L3.18791 6.09058L6.67074 2.50312ZM6.42806 2.265L9.93807 -1.29588L9.93466 -1.29924L6.42806 2.265ZM3.63444 0.789578L3.52336 5.78834L3.54632 5.78885L3.56928 5.78915L3.63444 0.789578ZM3.47152 0.791856L3.64997 5.78867L3.66067 5.78829L3.67136 5.78786L3.47152 0.791856ZM1.56657 1.54951L-1.84472 -2.10605L-1.84745 -2.1035L1.56657 1.54951ZM0.75765 3.43736L5.7563 3.55361L5.75689 3.5281L5.75722 3.50258L0.75765 3.43736ZM0.759928 3.59345L5.75673 3.41453L5.75628 3.40203L5.75577 3.38954L0.759928 3.59345ZM4.68148 9.29121L8.05045 5.59661L8.04881 5.59512L4.68148 9.29121ZM5.64876 10.189L9.11814 6.58852L9.11723 6.58764L5.64876 10.189ZM6.93164 11.4252L3.46227 15.0256L6.98283 18.418L10.4534 14.9745L6.93164 11.4252ZM8.54378 9.82555L5.02386 6.27447L5.02207 6.27625L8.54378 9.82555ZM9.41195 8.98587L12.8681 12.5991L12.8736 12.5937L9.41195 8.98587ZM11.0947 7.33157L7.49995 3.85629L7.49895 3.85732L11.0947 7.33157ZM12.1896 6.10908L8.29862 2.96898L8.29509 2.97337L12.1896 6.10908ZM12.9268 5.01874L8.45462 2.78268L12.9268 5.01874ZM13.2253 3.42711L8.25738 3.99293L8.25778 3.99642L13.2253 3.42711ZM12.6761 2.06106L16.6953 -0.913153L16.6937 -0.915346L12.6761 2.06106ZM11.5208 1.09264L13.7614 -3.37728L13.7491 -3.38337L11.5208 1.09264ZM9.77539 0.777045L9.2061 -4.19044L9.20045 -4.18979L9.77539 0.777045ZM6.92367 1.69192L3.41598 5.25508L7.05476 8.83722L10.5597 5.12402L6.92367 1.69192ZM9.6888 0.0250921L10.2564 4.99277L10.258 4.99259L9.6888 0.0250921ZM11.8569 0.418158L9.61151 4.88561L9.61725 4.88849L11.8569 0.418158ZM13.2822 1.61103L17.3018 -1.36272L17.2987 -1.36687L13.2822 1.61103ZM13.9772 3.34166L9.00978 3.9114L9.00986 3.91212L13.9772 3.34166ZM13.6012 5.35712L9.13208 3.1151L9.13174 3.11578L13.6012 5.35712ZM12.7775 6.58303L8.88643 3.44305L8.8846 3.44531L12.7775 6.58303ZM11.6382 7.85566L8.04533 4.37839L8.04009 4.38381L11.6382 7.85566ZM9.9349 9.5316L13.3913 13.1445L13.3934 13.1425L9.9349 9.5316ZM9.07585 10.3622L5.55664 6.81038L5.55436 6.81265L9.07585 10.3622ZM7.20052 12.2227L10.7206 15.7736L10.722 15.7722L7.20052 12.2227ZM6.93734 12.4836L3.47179 16.0878L6.99065 19.4713L10.4575 16.0345L6.93734 12.4836ZM6.67074 12.2272L3.20202 15.8284L3.20519 15.8314L6.67074 12.2272ZM5.12126 10.7347L8.58998 7.13361L8.58361 7.1275L5.12126 10.7347ZM4.16878 9.85175L7.54013 6.15932L7.53883 6.15814L4.16878 9.85175ZM0.00227865 3.61966L4.99909 3.44088L4.99885 3.4346L0.00227865 3.61966ZM0 3.42825L-4.99954 3.36054L-5 3.39439V3.42825H0ZM1.04932 0.994656L-2.36109 -2.66173L-2.36227 -2.66062L1.04932 0.994656ZM3.44303 0.035346L3.62327 5.0321L3.62473 5.03204L3.44303 0.035346ZM3.64128 0.0330673L3.55932 5.0324L3.56647 5.03251L3.57362 5.03261L3.64128 0.0330673ZM3.82294 -1.20344C3.71936 -1.09376 3.68054 -1.05166 3.61035 -0.978968L10.8044 5.96698C10.9256 5.84143 11.0417 5.71719 11.0931 5.6628L3.82294 -1.20344ZM3.59773 -0.965846L3.33454 -0.691269L10.5538 6.22843L10.817 5.95386L3.59773 -0.965846ZM10.427 -0.818884L10.1536 -1.08435L3.18791 6.09058L3.46135 6.35605L10.427 -0.818884ZM10.1554 -1.08256C10.0896 -1.14649 10.0208 -1.21436 9.93807 -1.29588L2.91805 5.82588C2.99486 5.90159 3.09007 5.99551 3.18607 6.0888L10.1554 -1.08256ZM9.93466 -1.29924C9.11083 -2.10974 7.19333 -4.16447 3.6996 -4.21L3.56928 5.78915C3.4964 5.7882 3.3345 5.77644 3.12093 5.7149C2.90342 5.65223 2.72221 5.56388 2.59365 5.4851C2.48031 5.41565 2.44233 5.37429 2.50789 5.43225C2.53966 5.46033 2.58643 5.5033 2.65795 5.57191C2.73194 5.64287 2.81138 5.72093 2.92146 5.82924L9.93466 -1.29924ZM3.74552 -4.20919C3.55009 -4.21353 3.38175 -4.20855 3.27168 -4.20415L3.67136 5.78786C3.6702 5.78791 3.65641 5.78846 3.63364 5.78882C3.61102 5.78917 3.57301 5.78945 3.52336 5.78834L3.74552 -4.20919ZM3.29306 -4.20496C1.46002 -4.13949 -0.395742 -3.45821 -1.84472 -2.10605L4.97786 5.20506C4.51781 5.63437 4.01557 5.77561 3.64997 5.78867L3.29306 -4.20496ZM-1.84745 -2.1035C-3.32993 -0.718005 -4.2139 1.22364 -4.24192 3.37215L5.75722 3.50258C5.75386 3.76053 5.69804 4.07019 5.5563 4.39087C5.41572 4.70892 5.21435 4.98405 4.98059 5.20251L-1.84745 -2.1035ZM-4.241 3.32112C-4.24567 3.52206 -4.24019 3.69245 -4.23591 3.79736L5.75577 3.38954C5.75577 3.38961 5.75593 3.39335 5.75613 3.39995C5.75633 3.40658 5.75661 3.41697 5.75683 3.43044C5.75727 3.45696 5.75756 3.49943 5.7563 3.55361L-4.241 3.32112ZM-4.23687 3.77237C-4.14236 6.41192 -2.86182 8.46122 -1.82442 9.77258C-0.774502 11.0998 0.50199 12.2474 1.31415 12.9873L8.04881 5.59512C7.11894 4.74796 6.47397 4.14442 6.01827 3.56838C5.55005 2.9765 5.74083 2.97046 5.75673 3.41453L-4.23687 3.77237ZM1.31251 12.9858C1.65862 13.3014 1.92935 13.5487 2.1803 13.7903L9.11723 6.58764C8.75066 6.2346 8.37654 5.89396 8.05045 5.59661L1.31251 12.9858ZM2.17939 13.7895L3.46227 15.0256L10.401 7.82468L9.11814 6.58852L2.17939 13.7895ZM10.4534 14.9745L12.0655 13.3749L5.02207 6.27625L3.40993 7.87585L10.4534 14.9745ZM12.0637 13.3766C12.2861 13.1562 12.5468 12.9064 12.8681 12.5991L5.95583 5.37266C5.64818 5.66693 5.32098 5.97996 5.02386 6.27447L12.0637 13.3766ZM12.8736 12.5937C13.3897 12.0986 14.058 11.4605 14.6905 10.8058L7.49895 3.85732C7.02405 4.34883 6.50291 4.84774 5.95025 5.37801L12.8736 12.5937ZM14.6895 10.8069C15.1436 10.3371 15.6338 9.80416 16.0841 9.24478L8.29509 2.97337C8.10518 3.20923 7.84111 3.5034 7.49995 3.85629L14.6895 10.8069ZM16.0806 9.24917C16.4954 8.73523 17.0033 8.04605 17.3989 7.25481L8.45462 2.78268C8.47782 2.73629 8.49361 2.70961 8.49702 2.70393C8.5007 2.69779 8.49637 2.7054 8.48138 2.72741C8.4497 2.77394 8.39152 2.85387 8.29863 2.96898L16.0806 9.24917ZM17.3989 7.25481C18.0935 5.86552 18.3638 4.35052 18.1927 2.8578L8.25778 3.99642C8.20291 3.5177 8.3023 3.08733 8.45462 2.78268L17.3989 7.25481ZM18.1931 2.86129C18.0282 1.41272 17.4649 0.126852 16.6953 -0.913153L8.6569 5.03528C8.47746 4.7928 8.30843 4.44118 8.25738 3.99293L18.1931 2.86129ZM16.6937 -0.915346C15.923 -1.9557 14.9133 -2.79984 13.7614 -3.37727L9.28031 5.56254C9.04206 5.44312 8.82998 5.2689 8.65852 5.03747L16.6937 -0.915346ZM13.7491 -3.38337C12.4286 -4.04076 10.8591 -4.37987 9.2061 -4.19044L10.3447 5.74453C9.92446 5.79269 9.56029 5.70195 9.29252 5.56864L13.7491 -3.38337ZM9.20045 -4.18979C6.11604 -3.83275 4.41309 -1.82876 3.82168 -1.2021L11.0943 5.66146C11.2829 5.46167 11.3662 5.3748 11.4342 5.30912C11.4909 5.25439 11.4642 5.28647 11.3761 5.34919C11.2777 5.41921 11.1204 5.51538 10.9122 5.59834C10.7016 5.68222 10.5061 5.72585 10.3503 5.74388L9.20045 -4.18979ZM10.5597 5.12402C10.6599 5.01787 10.7342 4.93934 10.8032 4.86819C10.8702 4.79914 10.9167 4.75303 10.9507 4.72064C11.0195 4.65508 11.0074 4.67442 10.9359 4.72354C10.854 4.77981 10.7301 4.85098 10.5762 4.90918C10.4237 4.96686 10.3072 4.98696 10.2564 4.99277L9.12119 -4.94258C5.83585 -4.5672 4.08532 -2.58526 3.28763 -1.74017L10.5597 5.12402ZM10.258 4.99259C9.99499 5.02272 9.77097 4.96575 9.61152 4.88561L14.1024 -4.04929C12.6372 -4.78569 10.9139 -5.148 9.11961 -4.9424L10.258 4.99259ZM9.61725 4.88849C9.49007 4.82477 9.37023 4.72985 9.26574 4.58893L17.2987 -1.36687C16.4559 -2.50356 15.3517 -3.42335 14.0966 -4.05217L9.61725 4.88849ZM9.26267 4.58477C9.15911 4.44479 9.045 4.21846 9.00978 3.9114L18.9446 2.77192C18.7636 1.19337 18.1505 -0.215568 17.3018 -1.36272L9.26267 4.58477ZM9.00986 3.91212C8.99235 3.75963 8.99701 3.60389 9.02361 3.45505C9.0503 3.30574 9.09417 3.19067 9.13208 3.1151L18.0704 7.59915C18.8444 6.0562 19.1308 4.39284 18.9446 2.77121L9.00986 3.91212ZM9.13174 3.11578C9.15363 3.07213 9.15204 3.08295 9.1051 3.15227C9.06 3.21888 8.98936 3.3155 8.88643 3.44305L16.6686 9.72302C17.1273 9.15463 17.6545 8.42844 18.0707 7.59846L9.13174 3.11578ZM8.8846 3.44531C8.67572 3.70446 8.39488 4.01722 8.04533 4.37839L15.231 11.3329C15.7041 10.8442 16.2071 10.2956 16.6704 9.72076L8.8846 3.44531ZM8.04009 4.38381C7.5555 4.88602 7.02692 5.39338 6.47636 5.92071L13.3934 13.1425C13.9229 12.6353 14.5929 11.9942 15.2363 11.3275L8.04009 4.38381ZM6.47849 5.91868C6.17062 6.21321 5.84209 6.52755 5.55664 6.81038L12.5951 13.914C12.8063 13.7046 13.068 13.4538 13.3913 13.1445L6.47849 5.91868ZM5.55436 6.81265L3.67903 8.67316L10.722 15.7722L12.5973 13.9117L5.55436 6.81265ZM3.68039 8.67181L3.41721 8.93272L10.4575 16.0345L10.7206 15.7736L3.68039 8.67181ZM10.4029 8.87942L10.1363 8.62307L3.20519 15.8314L3.47179 16.0878L10.4029 8.87942ZM10.1395 8.62613L8.58997 7.13362L1.65254 14.3358L3.20202 15.8284L10.1395 8.62613ZM8.58361 7.1275C8.24615 6.80359 7.86886 6.45947 7.54013 6.15933L0.797436 13.5442C1.15002 13.8661 1.42898 14.1213 1.6589 14.342L8.58361 7.1275ZM7.53883 6.15814C6.55416 5.25973 5.86956 4.61835 5.38066 3.98672C4.90724 3.37508 4.99173 3.2353 4.99908 3.44088L-4.99452 3.79844C-4.89716 6.51963 -3.65284 8.65337 -2.52722 10.1076C-1.41709 11.5419 -0.0634362 12.7587 0.798733 13.5454L7.53883 6.15814ZM4.99885 3.4346C4.99946 3.45095 4.99976 3.46337 4.99992 3.47083C5.00007 3.47825 5.00009 3.48208 5.00009 3.48102C5.00007 3.47984 5.00004 3.47565 5.00002 3.46642C5.00001 3.4619 5.00001 3.45666 5 3.45021C5 3.4436 5 3.43674 5 3.42825H-5C-5 3.47561 -5.00061 3.63421 -4.9943 3.80471L4.99885 3.4346ZM4.99954 3.49596C4.99748 3.64825 4.9629 3.85733 4.86152 4.08536C4.7615 4.31036 4.61952 4.50189 4.46091 4.64993L-2.36227 -2.66062C-3.98199 -1.14888 -4.96726 0.977154 -4.99954 3.36054L4.99954 3.49596ZM4.45972 4.65104C4.14476 4.94481 3.82369 5.02487 3.62327 5.0321L3.2628 -4.9614C1.23035 -4.88809 -0.79287 -4.12445 -2.36109 -2.66173L4.45972 4.65104ZM3.62473 5.03204C3.62033 5.0322 3.5963 5.033 3.55932 5.0324L3.72323 -4.96626C3.54726 -4.96915 3.39107 -4.96607 3.26134 -4.96135L3.62473 5.03204ZM3.57362 5.03261C3.60899 5.03309 3.53408 5.03528 3.39037 4.99644C3.32087 4.97765 3.24778 4.9526 3.17461 4.92147C3.10174 4.89047 3.04007 4.85824 2.9917 4.82981C2.89833 4.77492 2.87649 4.74672 2.9532 4.81344C2.99159 4.84683 3.04574 4.89604 3.12522 4.97181C3.20685 5.04962 3.29616 5.13714 3.41598 5.25508L10.4314 -1.87124C10.0292 -2.26717 9.18214 -3.131 8.05944 -3.79098C6.7599 -4.55492 5.31741 -4.94471 3.70893 -4.96648L3.57362 5.03261Z" fill="black" mask="url(#path-1-inside-1_2_111)"/>
</g>
<defs>
<clipPath id="clip0_2_111">
<rect width="14" height="12.4836" fill="white"/>
</clipPath>
</defs>
</svg>
