<svg width="24" height="20" viewBox="0 0 24 20" fill="none" xmlns="http://www.w3.org/2000/svg">
<g clip-path="url(#clip0_1_48)">
<path fill-rule="evenodd" clip-rule="evenodd" d="M1.74609 0.629883H22.2539C23.2148 0.629883 24 1.41504 24 2.37598C24 3.33691 23.2148 4.12207 22.2539 4.12207H1.74609C0.785156 4.12207 0 3.33691 0 2.37598C0 1.41504 0.785156 0.629883 1.74609 0.629883ZM1.74609 15.8779H22.2539C23.2148 15.8779 24 16.6631 24 17.624C24 18.585 23.2148 19.3701 22.2539 19.3701H1.74609C0.785156 19.3701 0 18.585 0 17.624C0 16.6631 0.785156 15.8779 1.74609 15.8779ZM1.74609 8.25293H22.2539C23.2148 8.25293 24 9.03809 24 9.99902C24 10.96 23.2148 11.7451 22.2539 11.7451H1.74609C0.785156 11.7451 0 10.96 0 9.99902C0 9.04004 0.785156 8.25293 1.74609 8.25293Z" fill="white"/>
</g>
<defs>
<clipPath id="clip0_1_48">
<rect width="24" height="18.7402" fill="white" transform="translate(0 0.629883)"/>
</clipPath>
</defs>
</svg>
