<svg width="96" height="15" viewBox="0 0 96 15" fill="none" xmlns="http://www.w3.org/2000/svg">
<path d="M8.78771 0L10.7428 5.39971C10.8145 5.59764 11.0024 5.72949 11.2129 5.72949H15.893C16.3904 5.72949 16.5827 6.3767 16.1661 6.64833L12.4763 9.05407C12.2818 9.18086 12.2002 9.42484 12.2792 9.64313L13.71 13.5946C13.8734 14.0459 13.3688 14.4458 12.9667 14.1837L8.78771 11.459L4.60868 14.1837C4.20662 14.4458 3.70206 14.0459 3.86546 13.5946L5.29618 9.64313C5.37522 9.42484 5.29361 9.18086 5.09913 9.05407L1.40929 6.64833C0.992665 6.3767 1.18501 5.72949 1.68237 5.72949H6.36248C6.57299 5.72949 6.76095 5.59764 6.83261 5.39971L8.78771 0Z" fill="url(#paint0_linear_2_30)"/>
<path d="M86.901 0L88.8561 5.39971C88.9277 5.59764 89.1157 5.72949 89.3262 5.72949H94.0063C94.5037 5.72949 94.696 6.3767 94.2794 6.64833L90.5896 9.05407C90.3951 9.18086 90.3135 9.42484 90.3925 9.64313L91.8232 13.5946C91.9866 14.0459 91.4821 14.4458 91.08 14.1837L86.901 11.459L82.722 14.1837C82.3199 14.4458 81.8153 14.0459 81.9787 13.5946L83.4095 9.64313C83.4885 9.42484 83.4069 9.18086 83.2124 9.05407L79.5226 6.64833C79.1059 6.3767 79.2983 5.72949 79.7956 5.72949H84.4758C84.6863 5.72949 84.8742 5.59764 84.9459 5.39971L86.901 0Z" fill="url(#paint1_linear_2_30)"/>
<path d="M67.3728 0L69.3279 5.39971C69.3995 5.59764 69.5875 5.72949 69.798 5.72949H74.4781C74.9755 5.72949 75.1678 6.3767 74.7512 6.64833L71.0614 9.05407C70.8669 9.18086 70.7853 9.42484 70.8643 9.64313L72.295 13.5946C72.4584 14.0459 71.9539 14.4458 71.5518 14.1837L67.3728 11.459L63.1938 14.1837C62.7917 14.4458 62.2871 14.0459 62.4505 13.5946L63.8813 9.64313C63.9603 9.42484 63.8787 9.18086 63.6842 9.05407L59.9944 6.64833C59.5777 6.3767 59.7701 5.72949 60.2675 5.72949H64.9476C65.1581 5.72949 65.346 5.59764 65.4177 5.39971L67.3728 0Z" fill="url(#paint2_linear_2_30)"/>
<path d="M47.8434 0L49.7985 5.39971C49.8701 5.59764 50.0581 5.72949 50.2686 5.72949H54.9487C55.4461 5.72949 55.6384 6.3767 55.2218 6.64833L51.5319 9.05407C51.3375 9.18086 51.2559 9.42484 51.3349 9.64313L52.7656 13.5946C52.929 14.0459 52.4245 14.4458 52.0224 14.1837L47.8434 11.459L43.6643 14.1837C43.2623 14.4458 42.7577 14.0459 42.9211 13.5946L44.3518 9.64313C44.4309 9.42484 44.3493 9.18086 44.1548 9.05407L40.465 6.64833C40.0483 6.3767 40.2407 5.72949 40.738 5.72949H45.4181C45.6287 5.72949 45.8166 5.59764 45.8883 5.39971L47.8434 0Z" fill="url(#paint3_linear_2_30)"/>
<path d="M28.3158 0L30.2709 5.39971C30.3425 5.59764 30.5305 5.72949 30.741 5.72949H35.4211C35.9185 5.72949 36.1108 6.3767 35.6942 6.64833L32.0044 9.05407C31.8099 9.18086 31.7283 9.42484 31.8073 9.64313L33.238 13.5946C33.4014 14.0459 32.8969 14.4458 32.4948 14.1837L28.3158 11.459L24.1368 14.1837C23.7347 14.4458 23.2301 14.0459 23.3935 13.5946L24.8243 9.64313C24.9033 9.42484 24.8217 9.18086 24.6272 9.05407L20.9374 6.64833C20.5207 6.3767 20.7131 5.72949 21.2104 5.72949H25.8906C26.1011 5.72949 26.289 5.59764 26.3607 5.39971L28.3158 0Z" fill="url(#paint4_linear_2_30)"/>
<defs>
<linearGradient id="paint0_linear_2_30" x1="-8.04463" y1="1.77457" x2="-11.3145" y2="19.9751" gradientUnits="userSpaceOnUse">
<stop stop-color="#FFD700"/>
<stop offset="1" stop-color="#998100" stop-opacity="0.5"/>
</linearGradient>
<linearGradient id="paint1_linear_2_30" x1="70.0687" y1="1.77457" x2="66.7988" y2="19.9751" gradientUnits="userSpaceOnUse">
<stop stop-color="#FFD700"/>
<stop offset="1" stop-color="#998100" stop-opacity="0.5"/>
</linearGradient>
<linearGradient id="paint2_linear_2_30" x1="50.5405" y1="1.77457" x2="47.2706" y2="19.9751" gradientUnits="userSpaceOnUse">
<stop stop-color="#FFD700"/>
<stop offset="1" stop-color="#998100" stop-opacity="0.5"/>
</linearGradient>
<linearGradient id="paint3_linear_2_30" x1="31.011" y1="1.77457" x2="27.7412" y2="19.9751" gradientUnits="userSpaceOnUse">
<stop stop-color="#FFD700"/>
<stop offset="1" stop-color="#998100" stop-opacity="0.5"/>
</linearGradient>
<linearGradient id="paint4_linear_2_30" x1="11.4834" y1="1.77457" x2="8.2136" y2="19.9751" gradientUnits="userSpaceOnUse">
<stop stop-color="#FFD700"/>
<stop offset="1" stop-color="#998100" stop-opacity="0.5"/>
</linearGradient>
</defs>
</svg>
