<svg width="20" height="21" viewBox="0 0 20 21" fill="none" xmlns="http://www.w3.org/2000/svg">
<g clip-path="url(#clip0_1_77)">
<path d="M8.81119 0C11.2444 0 13.4471 0.986179 15.0417 2.58089C16.6362 4.17544 17.6224 6.3782 17.6224 8.81136C17.6224 10.5914 17.0944 12.2483 16.1866 13.634L20 17.7902L17.3705 20.1939L13.6928 16.1473C12.2954 17.0791 10.6168 17.6226 8.81119 17.6226C6.37804 17.6226 4.17528 16.6362 2.58073 15.0417C0.986179 13.4469 0 11.2442 0 8.81119C0 6.37804 0.986179 4.17528 2.58073 2.58073C4.17528 0.986179 6.3782 0 8.81119 0ZM14.3465 3.27587C12.9301 1.8593 10.973 0.983221 8.81119 0.983221C6.64936 0.983221 4.69245 1.85946 3.27587 3.27587C1.8593 4.69245 0.983057 6.64952 0.983057 8.81119C0.983057 10.9729 1.8593 12.9299 3.27587 14.3464C4.69245 15.7631 6.64936 16.639 8.81119 16.639C10.973 16.639 12.9301 15.7631 14.3465 14.3464C15.7631 12.9299 16.6392 10.973 16.6392 8.81119C16.6392 6.64936 15.7631 4.69245 14.3465 3.27587Z" fill="#AB28B2"/>
</g>
<defs>
<clipPath id="clip0_1_77">
<rect width="20" height="20.1938" fill="white"/>
</clipPath>
</defs>
</svg>
