<svg width="13" height="23" viewBox="0 0 13 23" fill="none" xmlns="http://www.w3.org/2000/svg">
<path d="M11.5518 9.51745H1.04495C0.80121 9.51655 0.556692 9.41937 0.35873 9.22141C-0.0763163 8.78544 -0.12209 8.02598 0.256619 7.52568L5.6454 0.412078C5.68257 0.363937 5.72326 0.317596 5.76786 0.275754C6.21229 -0.147166 6.87073 -0.0756297 7.23809 0.435473L12.3229 7.50228C12.4999 7.72391 12.5979 8.01395 12.5975 8.31483C12.5975 8.9789 12.1292 9.51745 11.5518 9.51745ZM1.04495 13.483L11.5518 13.4825C12.1292 13.4825 12.5975 14.0211 12.5975 14.6852C12.5975 14.9983 12.4935 15.2836 12.3229 15.4977L7.23809 22.5645C6.87073 23.0756 6.21229 23.1472 5.76786 22.7242C5.72326 22.6824 5.68257 22.6361 5.6454 22.5879L0.256619 15.4743C-0.12209 14.974 -0.0763163 14.2146 0.35873 13.7786C0.556692 13.5806 0.80121 13.4834 1.04495 13.483Z" fill="#AB28B2"/>
</svg>
