<svg width="22" height="23" viewBox="0 0 22 23" fill="none" xmlns="http://www.w3.org/2000/svg">
<path d="M20 20.1719V18.3891C20 17.7737 19.7828 17.1673 19.3846 16.6968C19.0136 16.2533 18.5339 15.7375 18.1448 15.4388C16.4253 14.1357 13.9095 13.3031 10.9502 13.0587C9.8733 12.9682 9.48416 12.9773 8.37104 13.104C4.82353 13.5112 2.1086 14.742 0.696833 16.5791C0.642534 16.6515 0.588235 16.7149 0.542986 16.7782C0.190045 17.2397 0 17.8008 0 18.38V20.1809C0 21.7103 1.23982 22.9501 2.76923 22.9501H17.2398C18.7602 22.932 20 21.6922 20 20.1719Z" fill="white"/>
<path d="M9.90924 10.4072C12.4582 10.4072 14.5246 8.34084 14.5246 5.79184C14.5246 3.24283 12.4582 1.17645 9.90924 1.17645C7.36023 1.17645 5.29385 3.24283 5.29385 5.79184C5.29385 8.34084 7.36023 10.4072 9.90924 10.4072Z" fill="white"/>
<path d="M20 18.9954V17.2126C20 16.5972 19.7828 15.9909 19.3846 15.5203C19.0136 15.0769 18.5339 14.561 18.1448 14.2624C16.4253 12.9592 13.9095 12.1266 10.9502 11.8823C9.8733 11.7918 9.48416 11.8008 8.37104 11.9275C4.82353 12.3348 2.1086 13.5655 0.696833 15.4027C0.642534 15.4751 0.588235 15.5384 0.542986 15.6017C0.190045 16.0633 0 16.6244 0 17.2036V19.0045C0 20.5339 1.23982 21.7737 2.76923 21.7737H17.2398C18.7602 21.7646 20 20.5248 20 18.9954Z" fill="white"/>
<path d="M9.90924 9.23077C12.4582 9.23077 14.5246 7.16439 14.5246 4.61538C14.5246 2.06638 12.4582 0 9.90924 0C7.36023 0 5.29385 2.06638 5.29385 4.61538C5.29385 7.16439 7.36023 9.23077 9.90924 9.23077Z" fill="white"/>
<path d="M17.8516 10.5384V5.73722H18.8068V10.5384H17.8516ZM15.9304 8.61364V7.65838H20.7315V8.61364H15.9304Z" fill="white"/>
</svg>
